<?xml version="1.0" standalone="no"?>
<!DOCTYPE svg PUBLIC "-//W3C//DTD SVG 20010904//EN"
 "http://www.w3.org/TR/2001/REC-SVG-20010904/DTD/svg10.dtd">
<svg version="1.0" xmlns="http://www.w3.org/2000/svg"
 width="180.000000pt" height="180.000000pt" viewBox="0 0 180.000000 180.000000"
 preserveAspectRatio="xMidYMid meet">

<g transform="translate(0.000000,180.000000) scale(0.100000,-0.100000)"
fill="#000000" stroke="none">
<path d="M640 1673 c-43 -15 -125 -64 -105 -62 31 3 169 56 173 67 5 15 -12
14 -68 -5z"/>
<path d="M800 1657 c-65 -14 -66 -18 -48 -127 l13 -75 45 1 c92 1 262 28 268
43 7 18 -23 73 -71 127 -37 43 -40 44 -95 43 -32 0 -82 -6 -112 -12z"/>
<path d="M362 1510 c-78 -45 -174 -178 -207 -289 l-7 -23 43 26 c24 15 67 38
95 50 28 13 55 29 58 35 4 6 16 44 27 84 11 39 29 87 40 105 31 53 26 54 -49
12z"/>
<path d="M1507 1329 c26 -43 68 -161 78 -216 6 -37 13 -45 50 -67 l44 -24 -6
31 c-16 86 -92 258 -126 285 -6 5 -23 13 -36 17 l-24 7 20 -33z"/>
<path d="M1273 1254 c25 -137 40 -212 47 -230 7 -18 20 -22 82 -27 40 -4 91
-10 112 -14 l39 -6 -6 62 c-9 87 -47 190 -77 213 -19 13 -50 20 -114 25 l-89
6 6 -29z"/>
<path d="M115 1086 c-29 -69 -28 -242 2 -364 5 -21 6 -20 24 13 17 31 18 43 9
107 -6 40 -12 119 -13 176 -1 56 -3 102 -5 102 -2 0 -9 -15 -17 -34z"/>
<path d="M1035 1009 c-124 -18 -164 -30 -170 -49 -3 -11 7 -75 24 -142 16 -68
32 -137 36 -155 11 -53 19 -54 160 -34 99 15 132 23 143 38 11 14 12 48 7 168
-3 83 -9 158 -11 168 -4 14 -16 17 -67 16 -34 -1 -89 -5 -122 -10z"/>
<path d="M310 735 c-93 -51 -96 -55 -76 -105 19 -49 71 -130 114 -180 l30 -35
38 23 c22 13 54 30 72 38 17 8 32 20 32 27 0 7 -19 51 -43 97 -24 47 -50 104
-59 128 -9 23 -22 42 -30 42 -7 0 -42 -16 -78 -35z"/>
<path d="M1275 590 c-4 -6 -15 -46 -25 -89 -11 -43 -28 -103 -40 -132 -11 -30
-20 -57 -20 -61 0 -13 105 -9 121 5 52 42 169 225 169 264 0 22 -3 23 -99 23
-58 0 -102 -4 -106 -10z"/>
<path d="M1100 575 c-138 -20 -150 -24 -150 -48 0 -24 57 -247 65 -255 3 -3
35 -1 72 4 l68 9 17 53 c29 86 50 223 37 238 -6 8 -14 14 -18 13 -3 -1 -44 -7
-91 -14z"/>
<path d="M805 454 c-105 -27 -155 -47 -155 -59 0 -8 32 -49 71 -90 75 -79 87
-84 146 -62 l31 12 -31 97 c-29 92 -39 109 -62 102z"/>
<path d="M432 288 c-26 -26 -13 -56 33 -84 54 -31 163 -70 224 -80 38 -6 43
-5 40 11 -3 12 -29 28 -73 46 -62 25 -107 50 -187 102 -19 13 -28 14 -37 5z"/>
<path d="M1145 174 c-33 -7 -72 -13 -87 -14 -27 0 -68 -30 -68 -49 0 -10 130
13 175 31 17 7 44 20 60 30 30 18 30 18 5 17 -14 -1 -52 -7 -85 -15z"/>
</g>
</svg>
